<svg width="20" height="21" viewBox="0 0 20 21" fill="none" xmlns="http://www.w3.org/2000/svg">
<path d="M14.0824 7.23542L12.4055 7.17517L12.0419 16.9006L13.7188 16.9606L14.0824 7.23542Z" fill="#172B49"/>
<rect x="9.16077" y="7.20529" width="1.67799" height="9.72544" fill="#172B49"/>
<path d="M7.95733 16.9001L7.59377 7.17468L5.91687 7.23497L6.28047 16.9604L7.95733 16.9001Z" fill="#172B49"/>
<path fill-rule="evenodd" clip-rule="evenodd" d="M0.015625 4.79426V3.15054H19.9839V4.79426H18.2072L16.82 20.235C16.7823 20.6593 16.4193 20.985 15.9844 20.985H3.98688C3.55203 20.985 3.18927 20.6596 3.15123 20.2352L1.76412 4.79426H0.015625ZM4.75516 19.3417H15.2159L16.5228 4.79463H3.44855L4.75516 19.3417Z" fill="#172B49"/>
<path d="M12.7405 0H7.25901C6.48797 0 5.86069 0.614467 5.86069 1.36976V3.97235H7.53868V1.64372H12.4609V3.97235H14.1388V1.36976C14.1388 0.614467 13.5116 0 12.7405 0Z" fill="#172B49"/>
</svg>
